<svg version="1.1" id="Layer_1" xmlns="http://www.w3.org/2000/svg" xmlns:xlink="http://www.w3.org/1999/xlink" x="0px" y="0px"
	 width="100%" viewBox="0 0 640 185" enable-background="new 0 0 640 185" xml:space="preserve">
<path fill="#000000" opacity="1.000000" stroke="none" 
	d="
M420.000000,186.000000 
	C280.042267,186.000000 140.584534,186.000000 1.063397,186.000000 
	C1.063397,124.394341 1.063397,62.788589 1.063397,1.091421 
	C214.333313,1.091421 427.666656,1.091421 640.966431,1.091421 
	C640.966431,62.748745 640.966431,124.374382 640.966431,186.000000 
	C567.455261,186.000000 493.977631,186.000000 420.000000,186.000000 
M550.753540,97.341660 
	C550.536560,96.245636 550.319580,95.149605 550.709961,93.764603 
	C553.850708,89.969620 556.976074,86.161774 560.134827,82.381836 
	C573.801331,66.027618 587.500244,49.700401 601.131958,33.317276 
	C603.954712,29.924820 606.541260,26.335863 609.881653,22.000399 
	C598.613464,22.000399 588.645813,22.148657 578.685913,21.934996 
	C574.025452,21.835016 570.688843,22.576832 567.389648,26.803427 
	C556.797363,40.373131 545.433411,53.340549 534.412109,66.486694 
	C532.229919,62.675358 530.032227,58.836784 527.927368,54.188103 
	C526.667236,53.458591 525.414917,52.113525 524.145752,52.097446 
	C514.432678,51.974392 504.716339,52.110069 494.509796,52.141872 
	C494.408325,52.270447 494.306824,52.399017 494.205322,52.527580 
	C494.456055,52.721786 494.706787,52.915993 495.026184,53.563114 
	C495.026184,53.563114 495.166840,53.999065 495.038452,54.754513 
	C495.594452,56.274559 495.988922,57.879040 496.732239,59.301174 
	C502.347504,70.044281 508.031250,80.751595 513.738647,91.555290 
	C501.609436,106.264496 489.483887,120.969254 477.358337,135.674011 
	C477.667725,136.110931 477.977112,136.547836 478.286499,136.984756 
	C490.203827,136.984756 502.121582,137.023331 514.037659,136.901550 
	C514.868774,136.893066 515.814636,135.806183 516.491516,135.032211 
	C520.647400,130.280258 524.741089,125.473984 528.755432,120.802315 
	C531.092957,123.943474 532.992310,126.495781 534.978394,129.754761 
	C535.613647,131.183716 536.248962,132.612656 537.021790,134.843903 
	C538.317932,135.562683 539.600159,136.872787 540.912476,136.903656 
	C549.043274,137.094849 557.181702,137.060654 565.315308,136.942184 
	C566.832275,136.920090 568.338806,136.176834 570.162598,135.681534 
	C569.361389,133.837555 568.733826,132.393341 568.011108,130.356384 
	C567.712830,129.890701 567.414490,129.425018 567.000671,128.254242 
	C565.945190,126.184776 564.889771,124.115318 563.759644,121.362885 
	C561.784485,118.241844 559.809326,115.120804 557.941406,111.270973 
	C555.572693,106.858727 553.203979,102.446480 550.753540,97.341660 
M205.257614,61.345440 
	C205.144333,61.206127 205.031052,61.066811 204.994202,60.082001 
	C205.354309,57.480278 205.714417,54.878555 206.112839,52.000114 
	C196.576492,52.000114 187.754150,51.887032 178.941132,52.122231 
	C177.621750,52.157440 175.461258,53.618511 175.191620,54.771252 
	C173.244751,63.094521 171.716370,71.514778 169.995377,79.891975 
	C166.105438,98.826958 162.180908,117.754837 158.205673,136.999176 
	C168.341034,136.999176 178.490204,137.086929 188.633163,136.875931 
	C189.761948,136.852448 191.602005,135.293015 191.849915,134.167816 
	C194.383118,122.669746 196.292847,111.023804 199.138885,99.609207 
	C200.782928,93.015511 203.407425,86.569771 206.372635,80.435440 
	C208.397324,76.246864 216.674026,73.421051 219.631363,75.334862 
	C223.881912,78.085571 222.406952,82.743629 221.724197,86.275070 
	C218.465607,103.129440 214.654678,119.877022 211.005707,136.822815 
	C222.188461,136.822815 232.982712,136.822815 244.004868,136.822815 
	C246.687561,123.749237 249.241318,110.778061 252.042038,97.860428 
	C253.619980,90.582520 255.852371,83.547585 261.407593,78.058678 
	C264.710876,74.794830 268.860901,73.997597 272.676880,75.485847 
	C276.511658,76.981438 275.351074,81.382561 274.861816,84.385384 
	C273.409760,93.297379 271.395630,102.119629 269.528778,110.961670 
	C267.718658,119.535065 265.818634,128.089478 263.925201,136.803680 
	C275.254211,136.803680 286.044037,136.803680 296.740997,136.803680 
	C297.195587,135.032150 297.658142,133.480118 297.989349,131.900528 
	C301.462433,115.336113 305.252747,98.826973 308.192169,82.167885 
	C309.247742,76.185158 309.407990,69.542389 307.933960,63.717842 
	C304.664856,50.799843 290.384247,48.572857 280.029327,50.492443 
	C270.439545,52.270187 262.212067,56.844406 255.428268,63.973621 
	C251.618469,53.852581 243.608337,50.368256 233.970932,50.082069 
	C222.886703,49.752918 213.581619,54.380066 205.257614,61.345440 
M129.517593,137.000000 
	C137.967331,137.000000 146.417084,137.000000 154.847168,137.000000 
	C148.689468,97.817009 142.604370,59.095917 136.460358,20.000002 
	C125.807518,20.000002 115.006279,20.172571 104.217155,19.887190 
	C101.260078,19.808973 99.678207,21.041433 98.444107,23.142746 
	C89.086273,39.076355 79.809601,55.057594 70.480797,71.008293 
	C60.580860,87.935516 50.631096,104.833633 40.747791,121.770546 
	C37.955063,126.556412 35.318981,131.433685 32.320675,136.787537 
	C45.639545,136.787537 58.078384,136.787537 70.758911,136.787537 
	C73.051506,131.816849 75.285614,126.663704 77.836021,121.672165 
	C78.434349,120.501137 80.090202,119.134590 81.279770,119.115425 
	C93.062981,118.925652 104.850456,119.000557 116.608078,119.000557 
	C117.184898,125.209793 117.724190,131.015030 118.280174,137.000000 
	C121.897896,137.000000 125.210907,137.000000 129.517593,137.000000 
M443.143311,138.967285 
	C444.391876,138.644913 445.626221,138.120270 446.891205,138.031082 
	C461.450409,137.004517 472.670410,130.144073 481.094330,118.463127 
	C488.695343,107.923279 491.756256,96.126816 491.052277,83.158348 
	C490.406464,71.261665 481.158447,56.660233 468.998108,52.794636 
	C461.301331,50.347942 453.669281,49.824890 445.832397,50.023457 
	C433.394501,50.338608 422.335266,54.641491 413.432220,63.224354 
	C400.723236,75.476341 396.161194,91.089653 398.207703,108.234360 
	C399.350220,117.806152 403.688354,126.358963 412.413910,131.957443 
	C421.568420,137.831146 431.738251,138.962570 443.143311,138.967285 
M367.030060,127.677399 
	C373.015717,116.831734 379.030640,106.002075 384.977753,95.135307 
	C389.686981,86.530441 394.367432,77.908867 398.956207,69.239410 
	C401.855438,63.761971 404.562622,58.182858 407.586426,52.192841 
	C395.677612,52.192841 384.559143,52.192841 373.295929,52.192841 
	C366.137756,66.991516 358.948883,81.853630 351.760010,96.715736 
	C351.473389,96.679932 351.186768,96.644135 350.900177,96.608330 
	C349.536926,81.797951 348.173676,66.987579 346.816132,52.239113 
	C335.638733,52.239113 324.866791,52.239113 314.151550,52.239113 
	C317.388123,80.581512 320.598450,108.693916 323.809967,136.817047 
	C337.220947,136.817047 349.991241,136.817047 362.502930,136.817047 
	C364.076721,133.859604 365.518372,131.150513 367.030060,127.677399 
M531.041565,161.551590 
	C530.553650,162.605682 530.065674,163.659775 529.740662,164.361923 
	C525.865112,161.596741 527.600159,153.948242 520.204102,153.985657 
	C520.204102,160.183548 520.204102,165.941757 520.204102,172.010300 
	C521.619934,171.870895 522.800903,171.754608 524.121460,171.624573 
	C524.121460,168.325638 524.121460,165.412949 524.121460,161.276245 
	C525.508850,164.116531 526.299744,165.949097 527.287292,167.668701 
	C527.791687,168.546982 528.874573,169.970535 529.301147,169.841599 
	C530.334167,169.529358 531.363159,168.599686 531.983398,167.650650 
	C533.305908,165.627090 534.367981,163.433304 535.899658,160.649734 
	C536.158813,171.387985 536.158813,171.387985 538.830444,171.509354 
	C538.830444,165.737228 538.830444,159.970901 538.830444,154.205338 
	C534.730896,154.206482 534.730896,154.206482 531.041565,161.551590 
M573.035217,134.553635 
	C578.046753,138.075287 581.447449,137.811203 584.863953,133.635086 
	C586.856018,131.200119 586.324341,125.860153 583.841064,123.360939 
	C581.198364,120.701286 576.508179,120.585716 573.417358,123.104126 
	C569.966309,125.916039 569.663086,129.490036 573.035217,134.553635 
M476.735840,165.028763 
	C477.402954,162.440475 479.432800,159.092972 478.490387,157.401382 
	C475.215393,151.522964 469.253479,154.751465 464.182861,154.039841 
	C464.182861,160.202057 464.182861,165.936722 464.182861,171.828674 
	C465.442017,171.828674 466.518127,171.828674 467.740784,171.828674 
	C467.954895,170.132492 468.151001,168.578979 468.535034,165.536789 
	C472.350037,168.237427 475.299255,170.325195 478.248505,172.412949 
	C478.461731,172.082657 478.674957,171.752350 478.888214,171.422058 
	C477.950256,169.439331 477.012329,167.456589 476.735840,165.028763 
M360.852661,155.323502 
	C360.255463,155.070007 359.671509,154.777618 359.058990,154.569153 
	C353.999329,152.847321 348.063202,154.702499 346.140472,158.591919 
	C344.094482,162.730606 345.181000,167.492020 348.810974,170.294754 
	C352.111542,172.843170 358.813721,172.871140 361.459564,169.902969 
	C364.743927,166.218491 366.576843,162.155731 360.852661,155.323502 
M322.000000,168.292908 
	C322.579376,169.520142 323.158752,170.747391 323.738098,171.974640 
	C324.158722,170.751907 324.854279,169.548752 324.943024,168.302399 
	C325.130280,165.672455 325.000000,163.019913 325.000000,160.514572 
	C329.567505,164.010666 330.261047,170.689194 336.999451,172.183609 
	C336.999451,166.550720 337.063599,161.579102 336.939117,156.612213 
	C336.917236,155.737671 336.106232,154.882904 335.659637,154.018997 
	C335.106506,154.945328 334.160980,155.837265 334.076233,156.804626 
	C333.851929,159.364517 334.000214,161.957047 334.000214,165.019714 
	C329.092377,161.969467 328.565704,154.896194 322.000000,153.847748 
	C322.000000,158.725647 322.000000,163.031342 322.000000,168.292908 
M550.033508,156.447754 
	C549.689819,156.808273 549.317688,157.145889 549.006958,157.532883 
	C546.197571,161.032410 546.152832,164.650375 548.770813,168.223190 
	C551.548706,172.014328 555.669495,173.165970 559.704041,171.593491 
	C563.236816,170.216599 566.359375,167.801620 566.094177,162.816910 
	C565.693542,155.286118 558.072998,151.729156 550.033508,156.447754 
M410.565826,172.000000 
	C413.344269,172.000000 416.122711,172.000000 419.921875,172.000000 
	C416.766296,166.856598 412.126343,170.484177 409.245056,168.537949 
	C409.245056,167.428665 409.245056,166.348511 409.245056,165.291901 
	C417.376770,164.662003 417.376770,164.662003 417.609253,160.929718 
	C414.830475,160.929718 412.062775,160.929718 408.968170,160.929718 
	C409.130157,159.366119 409.251923,158.190826 409.375702,156.996277 
	C412.275757,156.996277 414.775543,157.107193 417.252319,156.917694 
	C417.865387,156.870789 418.403900,155.849167 418.976685,155.275604 
	C418.422546,154.852722 417.878632,154.080185 417.312592,154.063568 
	C413.576569,153.953979 409.835785,154.006958 406.000061,154.006958 
	C406.000061,159.328644 406.196777,163.984894 405.929932,168.614426 
	C405.756165,171.629135 406.960938,172.414490 410.565826,172.000000 
M441.664551,168.862442 
	C442.297363,164.070389 442.930145,159.278351 443.631622,153.966187 
	C441.442017,154.133774 440.270905,154.223419 438.999969,154.320694 
	C438.999969,157.682877 438.915436,160.669113 439.023376,163.648361 
	C439.134521,166.716476 438.184631,169.032318 434.780792,168.929733 
	C431.532898,168.831848 429.994568,166.710312 429.999542,163.484497 
	C430.003387,160.991241 430.165558,158.480133 429.902222,156.014908 
	C429.816376,155.210953 428.611145,154.526581 427.000000,152.809052 
	C427.000000,157.464417 427.335358,160.481567 426.920135,163.391617 
	C426.320404,167.594818 428.594849,170.508774 431.699738,171.643112 
	C434.659760,172.724518 438.657959,173.142868 441.664551,168.862442 
M396.999908,166.621826 
	C397.351196,160.194611 389.683716,162.997330 387.381775,157.914597 
	C391.014465,157.550735 394.050537,157.246643 397.086609,156.942535 
	C397.063690,156.320023 397.040771,155.697495 397.017883,155.074982 
	C394.865417,154.716660 392.723907,154.256577 390.557953,154.023834 
	C387.309967,153.674820 384.116211,154.775894 384.296753,158.211960 
	C384.401764,160.210358 387.120667,162.305054 389.043304,163.897827 
	C390.492798,165.098587 392.545380,165.571365 394.329529,166.368179 
	C394.185516,167.013855 394.041504,167.659531 393.897491,168.305206 
	C390.253937,168.305206 386.610382,168.305206 382.966827,168.305206 
	C384.431732,170.212128 385.675232,170.967957 387.008240,171.499146 
	C391.711304,173.373337 395.865417,171.663116 396.999908,166.621826 
M503.960022,157.848511 
	C503.973450,161.668488 503.908661,165.491531 504.057739,169.306229 
	C504.093079,170.210236 504.846283,171.086197 505.269287,171.975052 
	C505.846130,171.074219 506.879395,170.193909 506.920990,169.269012 
	C507.103668,165.204742 506.999786,161.127594 506.999786,157.807693 
	C509.674164,156.943497 511.481384,156.359512 513.288635,155.775528 
	C513.127197,155.265121 512.965698,154.754730 512.804260,154.244324 
	C508.231018,154.244324 503.657776,154.244324 499.084503,154.244324 
	C498.963074,154.803406 498.841644,155.362488 498.720184,155.921570 
	C500.294067,156.305420 501.867950,156.689270 503.960022,157.848511 
M488.000153,156.759003 
	C488.000977,161.220642 487.939728,165.684143 488.073181,170.141785 
	C488.092010,170.770462 489.061249,171.370667 489.590546,171.984055 
	C490.055908,171.475342 490.914795,170.974808 490.925537,170.456680 
	C491.028320,165.501556 491.028717,160.542648 490.928650,155.587448 
	C490.917908,155.056351 490.082520,154.541901 489.629700,154.019745 
	C489.087372,154.617050 488.545044,155.214371 488.000153,156.759003 
z"/>
<path fill="#FFFFFF" opacity="1.000000" stroke="none" 
	d="
M205.554306,61.795044 
	C213.581619,54.380066 222.886703,49.752918 233.970932,50.082069 
	C243.608337,50.368256 251.618469,53.852581 255.428268,63.973621 
	C262.212067,56.844406 270.439545,52.270187 280.029327,50.492443 
	C290.384247,48.572857 304.664856,50.799843 307.933960,63.717842 
	C309.407990,69.542389 309.247742,76.185158 308.192169,82.167885 
	C305.252747,98.826973 301.462433,115.336113 297.989349,131.900528 
	C297.658142,133.480118 297.195587,135.032150 296.740997,136.803680 
	C286.044037,136.803680 275.254211,136.803680 263.925201,136.803680 
	C265.818634,128.089478 267.718658,119.535065 269.528778,110.961670 
	C271.395630,102.119629 273.409760,93.297379 274.861816,84.385384 
	C275.351074,81.382561 276.511658,76.981438 272.676880,75.485847 
	C268.860901,73.997597 264.710876,74.794830 261.407593,78.058678 
	C255.852371,83.547585 253.619980,90.582520 252.042038,97.860428 
	C249.241318,110.778061 246.687561,123.749237 244.004868,136.822815 
	C232.982712,136.822815 222.188461,136.822815 211.005707,136.822815 
	C214.654678,119.877022 218.465607,103.129440 221.724197,86.275070 
	C222.406952,82.743629 223.881912,78.085571 219.631363,75.334862 
	C216.674026,73.421051 208.397324,76.246864 206.372635,80.435440 
	C203.407425,86.569771 200.782928,93.015511 199.138885,99.609207 
	C196.292847,111.023804 194.383118,122.669746 191.849915,134.167816 
	C191.602005,135.293015 189.761948,136.852448 188.633163,136.875931 
	C178.490204,137.086929 168.341034,136.999176 158.205673,136.999176 
	C162.180908,117.754837 166.105438,98.826958 169.995377,79.891975 
	C171.716370,71.514778 173.244751,63.094521 175.191620,54.771252 
	C175.461258,53.618511 177.621750,52.157440 178.941132,52.122231 
	C187.754150,51.887032 196.576492,52.000114 206.112839,52.000114 
	C205.714417,54.878555 205.354309,57.480278 204.675598,60.601372 
	C204.316544,61.660385 204.276108,62.200031 204.235657,62.739677 
	C204.675201,62.424797 205.114761,62.109921 205.554306,61.795044 
z"/>
<path fill="#FFFFFF" opacity="1.000000" stroke="none" 
	d="
M129.020752,137.000000 
	C125.210907,137.000000 121.897896,137.000000 118.280174,137.000000 
	C117.724190,131.015030 117.184898,125.209793 116.608078,119.000557 
	C104.850456,119.000557 93.062981,118.925652 81.279770,119.115425 
	C80.090202,119.134590 78.434349,120.501137 77.836021,121.672165 
	C75.285614,126.663704 73.051506,131.816849 70.758911,136.787537 
	C58.078384,136.787537 45.639545,136.787537 32.320675,136.787537 
	C35.318981,131.433685 37.955063,126.556412 40.747791,121.770546 
	C50.631096,104.833633 60.580860,87.935516 70.480797,71.008293 
	C79.809601,55.057594 89.086273,39.076355 98.444107,23.142746 
	C99.678207,21.041433 101.260078,19.808973 104.217155,19.887190 
	C115.006279,20.172571 125.807518,20.000002 136.460358,20.000002 
	C142.604370,59.095917 148.689468,97.817009 154.847168,137.000000 
	C146.417084,137.000000 137.967331,137.000000 129.020752,137.000000 
M107.444931,66.043854 
	C102.798241,74.618332 98.151543,83.192810 93.491936,91.791122 
	C100.291336,91.791122 107.043701,91.791122 114.065025,91.791122 
	C112.682732,82.164001 111.336235,72.786209 109.886604,62.690102 
	C108.869095,64.206940 108.430626,64.860580 107.444931,66.043854 
z"/>
<path fill="#FFFFFF" opacity="1.000000" stroke="none" 
	d="
M442.680237,138.982483 
	C431.738251,138.962570 421.568420,137.831146 412.413910,131.957443 
	C403.688354,126.358963 399.350220,117.806152 398.207703,108.234360 
	C396.161194,91.089653 400.723236,75.476341 413.432220,63.224354 
	C422.335266,54.641491 433.394501,50.338608 445.832397,50.023457 
	C453.669281,49.824890 461.301331,50.347942 468.998108,52.794636 
	C481.158447,56.660233 490.406464,71.261665 491.052277,83.158348 
	C491.756256,96.126816 488.695343,107.923279 481.094330,118.463127 
	C472.670410,130.144073 461.450409,137.004517 446.891205,138.031082 
	C445.626221,138.120270 444.391876,138.644913 442.680237,138.982483 
M435.490906,80.000275 
	C433.327301,86.467598 430.240906,92.795685 429.238556,99.438240 
	C428.043060,107.360847 432.497528,113.431839 438.916565,115.443741 
	C443.798859,116.974007 449.687164,113.927544 453.973541,107.484451 
	C458.312866,100.961868 459.762970,93.550858 459.952026,85.900543 
	C460.116455,79.245583 457.074280,74.925880 451.569885,73.180908 
	C446.395233,71.540459 439.323303,74.361626 435.490906,80.000275 
z"/>
<path fill="#FFFFFF" opacity="1.000000" stroke="none" 
	d="
M366.995026,128.059418 
	C365.518372,131.150513 364.076721,133.859604 362.502930,136.817047 
	C349.991241,136.817047 337.220947,136.817047 323.809967,136.817047 
	C320.598450,108.693916 317.388123,80.581512 314.151550,52.239113 
	C324.866791,52.239113 335.638733,52.239113 346.816132,52.239113 
	C348.173676,66.987579 349.536926,81.797951 350.900177,96.608330 
	C351.186768,96.644135 351.473389,96.679932 351.760010,96.715736 
	C358.948883,81.853630 366.137756,66.991516 373.295929,52.192841 
	C384.559143,52.192841 395.677612,52.192841 407.586426,52.192841 
	C404.562622,58.182858 401.855438,63.761971 398.956207,69.239410 
	C394.367432,77.908867 389.686981,86.530441 384.977753,95.135307 
	C379.030640,106.002075 373.015717,116.831734 366.995026,128.059418 
z"/>
<path fill="#D10022" opacity="1.000000" stroke="none" 
	d="
M527.834473,54.998207 
	C530.032227,58.836784 532.229919,62.675358 534.412109,66.486694 
	C545.433411,53.340549 556.797363,40.373131 567.389648,26.803427 
	C570.688843,22.576832 574.025452,21.835016 578.685913,21.934996 
	C588.645813,22.148657 598.613464,22.000399 609.881653,22.000399 
	C606.541260,26.335863 603.954712,29.924820 601.131958,33.317276 
	C587.500244,49.700401 573.801331,66.027618 560.134827,82.381836 
	C556.976074,86.161774 553.850708,89.969620 550.127686,93.706993 
	C549.363647,92.766251 549.181824,91.883125 549.146729,90.697601 
	C555.586792,82.704979 561.867981,75.004845 568.177246,67.327782 
	C572.908752,61.570595 577.616699,55.792347 582.443237,50.115398 
	C588.317444,43.206230 594.352783,36.433647 600.190918,29.494699 
	C601.041931,28.483177 601.185730,26.876623 601.656799,25.545418 
	C600.177917,25.030472 598.710938,24.115601 597.218079,24.071238 
	C591.392883,23.898134 585.510376,23.550077 579.748596,24.178495 
	C576.557739,24.526512 572.749756,25.912184 570.630615,28.160030 
	C563.710022,35.500824 557.434082,43.449631 550.916992,51.170357 
	C546.642700,56.234062 542.480103,61.396957 538.067932,66.337219 
	C536.026855,68.622589 533.224182,69.167648 531.284241,66.321892 
	C528.602295,62.387707 526.404907,58.123199 524.332642,54.028366 
	C525.721680,54.370453 526.778076,54.684330 527.834473,54.998207 
z"/>
<path fill="#D10022" opacity="1.000000" stroke="none" 
	d="
M534.891663,129.048080 
	C532.992310,126.495781 531.092957,123.943474 528.755432,120.802315 
	C524.741089,125.473984 520.647400,130.280258 516.491516,135.032211 
	C515.814636,135.806183 514.868774,136.893066 514.037659,136.901550 
	C502.121582,137.023331 490.203827,136.984756 478.286499,136.984756 
	C477.977112,136.547836 477.667725,136.110931 477.358337,135.674011 
	C489.483887,120.969254 501.609436,106.264496 513.738647,91.555290 
	C508.031250,80.751595 502.347504,70.044281 496.732239,59.301174 
	C495.988922,57.879040 495.594452,56.274559 495.504944,54.377083 
	C497.314301,53.999821 498.657135,53.999985 499.965576,54.353161 
	C500.089386,56.411602 499.764893,58.361256 500.484100,59.782864 
	C505.182434,69.069504 510.054077,78.270157 514.988770,87.434502 
	C516.507568,90.255157 517.018616,92.274170 514.480408,95.241592 
	C504.746277,106.621880 495.455933,118.381752 485.698425,130.154022 
	C483.925201,131.811966 482.940063,133.236404 486.468658,134.000000 
	C494.082062,133.999985 501.228180,133.915085 508.371063,134.030411 
	C512.977112,134.104782 516.163574,132.530762 518.231995,128.104431 
	C519.524414,125.338623 521.719604,122.863693 523.930481,120.685219 
	C528.585083,116.098679 532.986084,118.819534 535.875854,128.231903 
	C535.465027,128.658569 535.178345,128.853333 534.891663,129.048080 
z"/>
<path fill="#FFFFFF" opacity="1.000000" stroke="none" 
	d="
M531.289917,161.260742 
	C534.730896,154.206482 534.730896,154.206482 538.830444,154.205338 
	C538.830444,159.970901 538.830444,165.737228 538.830444,171.509354 
	C536.158813,171.387985 536.158813,171.387985 535.899658,160.649734 
	C534.367981,163.433304 533.305908,165.627090 531.983398,167.650650 
	C531.363159,168.599686 530.334167,169.529358 529.301147,169.841599 
	C528.874573,169.970535 527.791687,168.546982 527.287292,167.668701 
	C526.299744,165.949097 525.508850,164.116531 524.121460,161.276245 
	C524.121460,165.412949 524.121460,168.325638 524.121460,171.624573 
	C522.800903,171.754608 521.619934,171.870895 520.204102,172.010300 
	C520.204102,165.941757 520.204102,160.183548 520.204102,153.985657 
	C527.600159,153.948242 525.865112,161.596741 529.740662,164.361923 
	C530.065674,163.659775 530.553650,162.605682 531.289917,161.260742 
z"/>
<path fill="#FFFFFF" opacity="1.000000" stroke="none" 
	d="
M572.764160,134.275253 
	C569.663086,129.490036 569.966309,125.916039 573.417358,123.104126 
	C576.508179,120.585716 581.198364,120.701286 583.841064,123.360939 
	C586.324341,125.860153 586.856018,131.200119 584.863953,133.635086 
	C581.447449,137.811203 578.046753,138.075287 572.764160,134.275253 
z"/>
<path fill="#FFFFFF" opacity="1.000000" stroke="none" 
	d="
M476.405121,165.251312 
	C477.012329,167.456589 477.950256,169.439331 478.888214,171.422058 
	C478.674957,171.752350 478.461731,172.082657 478.248505,172.412949 
	C475.299255,170.325195 472.350037,168.237427 468.535034,165.536789 
	C468.151001,168.578979 467.954895,170.132492 467.740784,171.828674 
	C466.518127,171.828674 465.442017,171.828674 464.182861,171.828674 
	C464.182861,165.936722 464.182861,160.202057 464.182861,154.039841 
	C469.253479,154.751465 475.215393,151.522964 478.490387,157.401382 
	C479.432800,159.092972 477.402954,162.440475 476.405121,165.251312 
M475.948181,161.474915 
	C475.615845,155.849380 471.748016,157.034424 468.208588,157.161392 
	C468.208588,159.219254 468.208588,160.951324 468.208588,163.366257 
	C470.785522,162.906982 473.069305,162.499954 475.948181,161.474915 
z"/>
<path fill="#FFFFFF" opacity="1.000000" stroke="none" 
	d="
M361.120239,155.625076 
	C366.576843,162.155731 364.743927,166.218491 361.459564,169.902969 
	C358.813721,172.871140 352.111542,172.843170 348.810974,170.294754 
	C345.181000,167.492020 344.094482,162.730606 346.140472,158.591919 
	C348.063202,154.702499 353.999329,152.847321 359.058990,154.569153 
	C359.671509,154.777618 360.255463,155.070007 361.120239,155.625076 
M352.503937,168.046448 
	C356.678467,169.508881 360.458221,167.729675 361.015533,164.132217 
	C361.557098,160.636490 359.885681,158.584625 356.851349,157.352753 
	C353.717407,156.080460 351.168213,157.286102 349.713806,159.932190 
	C348.063904,162.933960 348.425018,165.934311 352.503937,168.046448 
z"/>
<path fill="#FFFFFF" opacity="1.000000" stroke="none" 
	d="
M322.000000,167.814972 
	C322.000000,163.031342 322.000000,158.725647 322.000000,153.847748 
	C328.565704,154.896194 329.092377,161.969467 334.000214,165.019714 
	C334.000214,161.957047 333.851929,159.364517 334.076233,156.804626 
	C334.160980,155.837265 335.106506,154.945328 335.659607,154.019012 
	C336.106232,154.882904 336.917236,155.737671 336.939117,156.612213 
	C337.063599,161.579102 336.999451,166.550720 336.999451,172.183609 
	C330.261047,170.689194 329.567505,164.010666 325.000000,160.514572 
	C325.000000,163.019913 325.130280,165.672455 324.943024,168.302399 
	C324.854279,169.548752 324.158722,170.751907 323.738098,171.974640 
	C323.158752,170.747391 322.579376,169.520142 322.000000,167.814972 
z"/>
<path fill="#FFFFFF" opacity="1.000000" stroke="none" 
	d="
M550.330383,156.182190 
	C558.072998,151.729156 565.693542,155.286118 566.094177,162.816910 
	C566.359375,167.801620 563.236816,170.216599 559.704041,171.593491 
	C555.669495,173.165970 551.548706,172.014328 548.770813,168.223190 
	C546.152832,164.650375 546.197571,161.032410 549.006958,157.532883 
	C549.317688,157.145889 549.689819,156.808273 550.330383,156.182190 
M560.246704,167.973404 
	C563.430420,165.430908 564.081543,162.252136 561.500610,159.175980 
	C559.170959,156.399277 555.776184,156.091766 552.773010,158.103897 
	C550.126282,159.877197 549.685242,162.725510 551.174866,165.523987 
	C553.017334,168.985184 555.746887,170.263519 560.246704,167.973404 
z"/>
<path fill="#FFFFFF" opacity="1.000000" stroke="none" 
	d="
M410.087158,172.000000 
	C406.960938,172.414490 405.756165,171.629135 405.929932,168.614426 
	C406.196777,163.984894 406.000061,159.328644 406.000061,154.006958 
	C409.835785,154.006958 413.576569,153.953979 417.312592,154.063568 
	C417.878632,154.080185 418.422546,154.852722 418.976685,155.275604 
	C418.403900,155.849167 417.865387,156.870789 417.252319,156.917694 
	C414.775543,157.107193 412.275757,156.996277 409.375702,156.996277 
	C409.251923,158.190826 409.130157,159.366119 408.968170,160.929718 
	C412.062775,160.929718 414.830475,160.929718 417.609253,160.929718 
	C417.376770,164.662003 417.376770,164.662003 409.245056,165.291901 
	C409.245056,166.348511 409.245056,167.428665 409.245056,168.537949 
	C412.126343,170.484177 416.766296,166.856598 419.921875,172.000000 
	C416.122711,172.000000 413.344269,172.000000 410.087158,172.000000 
z"/>
<path fill="#FFFFFF" opacity="1.000000" stroke="none" 
	d="
M441.356079,169.142822 
	C438.657959,173.142868 434.659760,172.724518 431.699738,171.643112 
	C428.594849,170.508774 426.320404,167.594818 426.920135,163.391617 
	C427.335358,160.481567 427.000000,157.464417 427.000000,152.809052 
	C428.611145,154.526581 429.816376,155.210953 429.902222,156.014908 
	C430.165558,158.480133 430.003387,160.991241 429.999542,163.484497 
	C429.994568,166.710312 431.532898,168.831848 434.780792,168.929733 
	C438.184631,169.032318 439.134521,166.716476 439.023376,163.648361 
	C438.915436,160.669113 438.999969,157.682877 438.999969,154.320694 
	C440.270905,154.223419 441.442017,154.133774 443.631622,153.966187 
	C442.930145,159.278351 442.297363,164.070389 441.356079,169.142822 
z"/>
<path fill="#D10022" opacity="1.000000" stroke="none" 
	d="
M534.935059,129.401428 
	C535.178345,128.853333 535.465027,128.658569 536.230225,128.287155 
	C538.411621,129.724686 540.025574,132.605011 541.832947,132.732025 
	C549.324890,133.258484 556.875366,132.953049 565.322327,132.953049 
	C561.600830,125.398849 558.300415,118.699425 555.354309,112.000000 
	C556.417114,111.999924 557.125610,111.999855 557.834106,111.999771 
	C559.809326,115.120804 561.784485,118.241844 563.561707,121.940704 
	C564.614563,124.665466 565.865417,126.812401 567.116211,128.959335 
	C567.414490,129.425018 567.712830,129.890701 567.757080,130.903091 
	C566.967041,133.623703 566.260132,135.227783 563.349121,135.063141 
	C554.536377,134.564713 545.707092,134.360474 536.884216,134.041595 
	C536.248962,132.612656 535.613647,131.183716 534.935059,129.401428 
z"/>
<path fill="#FFFFFF" opacity="1.000000" stroke="none" 
	d="
M396.999878,167.040985 
	C395.865417,171.663116 391.711304,173.373337 387.008240,171.499146 
	C385.675232,170.967957 384.431732,170.212128 382.966827,168.305206 
	C386.610382,168.305206 390.253937,168.305206 393.897491,168.305206 
	C394.041504,167.659531 394.185516,167.013855 394.329529,166.368179 
	C392.545380,165.571365 390.492798,165.098587 389.043304,163.897827 
	C387.120667,162.305054 384.401764,160.210358 384.296753,158.211960 
	C384.116211,154.775894 387.309967,153.674820 390.557953,154.023834 
	C392.723907,154.256577 394.865417,154.716660 397.017883,155.074982 
	C397.040771,155.697495 397.063690,156.320023 397.086609,156.942535 
	C394.050537,157.246643 391.014465,157.550735 387.381775,157.914597 
	C389.683716,162.997330 397.351196,160.194611 396.999878,167.040985 
z"/>
<path fill="#FFFFFF" opacity="1.000000" stroke="none" 
	d="
M503.700928,157.460815 
	C501.867950,156.689270 500.294067,156.305420 498.720184,155.921570 
	C498.841644,155.362488 498.963074,154.803406 499.084503,154.244324 
	C503.657776,154.244324 508.231018,154.244324 512.804260,154.244324 
	C512.965698,154.754730 513.127197,155.265121 513.288635,155.775528 
	C511.481384,156.359512 509.674164,156.943497 506.999786,157.807693 
	C506.999786,161.127594 507.103668,165.204742 506.920990,169.269012 
	C506.879395,170.193909 505.846130,171.074219 505.269287,171.975067 
	C504.846283,171.086197 504.093079,170.210236 504.057739,169.306229 
	C503.908661,165.491531 503.973450,161.668488 503.700928,157.460815 
z"/>
<path fill="#D20022" opacity="1.000000" stroke="none" 
	d="
M536.953003,134.442749 
	C545.707092,134.360474 554.536377,134.564713 563.349121,135.063141 
	C566.260132,135.227783 566.967041,133.623703 567.804688,131.199463 
	C568.733826,132.393341 569.361389,133.837555 570.162598,135.681534 
	C568.338806,136.176834 566.832275,136.920090 565.315308,136.942184 
	C557.181702,137.060654 549.043274,137.094849 540.912476,136.903656 
	C539.600159,136.872787 538.317932,135.562683 536.953003,134.442749 
z"/>
<path fill="#D20022" opacity="1.000000" stroke="none" 
	d="
M500.000000,54.000153 
	C498.657135,53.999985 497.314301,53.999821 495.569153,53.999359 
	C495.166840,53.999065 495.026184,53.563114 495.006226,53.100521 
	C494.986237,52.637928 495.001007,52.165321 495.001007,52.165321 
	C504.716339,52.110069 514.432678,51.974392 524.145752,52.097446 
	C525.414917,52.113525 526.667236,53.458591 527.880920,54.593155 
	C526.778076,54.684330 525.721680,54.370453 523.864014,54.028336 
	C515.375183,54.000111 507.687592,54.000134 500.000000,54.000153 
z"/>
<path fill="#FFFFFF" opacity="1.000000" stroke="none" 
	d="
M488.001434,156.285339 
	C488.545044,155.214371 489.087372,154.617050 489.629700,154.019745 
	C490.082520,154.541901 490.917908,155.056351 490.928650,155.587448 
	C491.028717,160.542648 491.028320,165.501556 490.925537,170.456680 
	C490.914795,170.974808 490.055908,171.475342 489.590546,171.984039 
	C489.061249,171.370667 488.092010,170.770462 488.073181,170.141785 
	C487.939728,165.684143 488.000977,161.220642 488.001434,156.285339 
z"/>
<path fill="#D20022" opacity="1.000000" stroke="none" 
	d="
M557.887756,111.635376 
	C557.125610,111.999855 556.417114,111.999924 555.322510,111.654602 
	C554.624268,110.206131 554.312134,109.103058 553.958618,107.679199 
	C553.278137,106.905602 552.639099,106.452797 552.000000,105.750000 
	C552.000000,105.500000 552.000000,105.000000 551.968994,104.661461 
	C552.480896,102.067047 547.648621,100.753662 550.835266,98.034241 
	C553.203979,102.446480 555.572693,106.858727 557.887756,111.635376 
z"/>
<path fill="#D10022" opacity="1.000000" stroke="none" 
	d="
M550.794434,97.687950 
	C547.648621,100.753662 552.480896,102.067047 551.619202,104.607727 
	C546.423950,99.386971 545.683594,94.915886 549.000000,91.000000 
	C549.181824,91.883125 549.363647,92.766251 549.823975,93.851479 
	C550.319580,95.149605 550.536560,96.245636 550.794434,97.687950 
z"/>
<path fill="#D20022" opacity="1.000000" stroke="none" 
	d="
M567.058472,128.606781 
	C565.865417,126.812401 564.614563,124.665466 563.598999,122.282196 
	C564.889771,124.115318 565.945190,126.184776 567.058472,128.606781 
z"/>
<path fill="#D10022" opacity="1.000000" stroke="none" 
	d="
M494.755402,52.153595 
	C495.001007,52.165321 494.986237,52.637928 494.971863,52.874065 
	C494.706787,52.915993 494.456055,52.721786 494.205322,52.527584 
	C494.306824,52.399017 494.408325,52.270447 494.755402,52.153595 
z"/>
<path fill="#000000" opacity="1.000000" stroke="none" 
	d="
M205.405960,61.570244 
	C205.114761,62.109921 204.675201,62.424797 204.235657,62.739677 
	C204.276108,62.200031 204.316544,61.660385 204.637390,61.024117 
	C205.031052,61.066811 205.144333,61.206127 205.405960,61.570244 
z"/>
<path fill="#000000" opacity="1.000000" stroke="none" 
	d="
M107.718552,65.779037 
	C108.430626,64.860580 108.869095,64.206940 109.886604,62.690102 
	C111.336235,72.786209 112.682732,82.164001 114.065025,91.791122 
	C107.043701,91.791122 100.291336,91.791122 93.491936,91.791122 
	C98.151543,83.192810 102.798241,74.618332 107.718552,65.779037 
z"/>
<path fill="#000000" opacity="1.000000" stroke="none" 
	d="
M435.726746,79.703644 
	C439.323303,74.361626 446.395233,71.540459 451.569885,73.180908 
	C457.074280,74.925880 460.116455,79.245583 459.952026,85.900543 
	C459.762970,93.550858 458.312866,100.961868 453.973541,107.484451 
	C449.687164,113.927544 443.798859,116.974007 438.916565,115.443741 
	C432.497528,113.431839 428.043060,107.360847 429.238556,99.438240 
	C430.240906,92.795685 433.327301,86.467598 435.726746,79.703644 
z"/>
<path fill="#D00022" opacity="1.000000" stroke="none" 
	d="
M549.146729,90.697601 
	C545.683594,94.915886 546.423950,99.386971 551.650269,104.946259 
	C552.000000,105.000000 552.000000,105.500000 552.041382,106.070786 
	C552.721863,107.094383 553.360901,107.547188 554.000000,107.999992 
	C554.312134,109.103058 554.624268,110.206131 554.968201,111.654594 
	C558.300415,118.699425 561.600830,125.398849 565.322327,132.953049 
	C556.875366,132.953049 549.324890,133.258484 541.832947,132.732025 
	C540.025574,132.605011 538.411621,129.724686 536.354370,128.055252 
	C532.986084,118.819534 528.585083,116.098679 523.930481,120.685219 
	C521.719604,122.863693 519.524414,125.338623 518.231995,128.104431 
	C516.163574,132.530762 512.977112,134.104782 508.371063,134.030411 
	C501.228180,133.915085 494.082062,133.999985 486.468658,133.600006 
	C486.000000,132.133347 486.000000,131.066666 486.000000,130.000000 
	C495.455933,118.381752 504.746277,106.621880 514.480408,95.241592 
	C517.018616,92.274170 516.507568,90.255157 514.988770,87.434502 
	C510.054077,78.270157 505.182434,69.069504 500.484100,59.782864 
	C499.764893,58.361256 500.089386,56.411602 499.965576,54.353161 
	C507.687592,54.000134 515.375183,54.000111 523.531372,54.000122 
	C526.404907,58.123199 528.602295,62.387707 531.284241,66.321892 
	C533.224182,69.167648 536.026855,68.622589 538.067932,66.337219 
	C542.480103,61.396957 546.642700,56.234062 550.916992,51.170357 
	C557.434082,43.449631 563.710022,35.500824 570.630615,28.160030 
	C572.749756,25.912184 576.557739,24.526512 579.748596,24.178495 
	C585.510376,23.550077 591.392883,23.898134 597.218079,24.071238 
	C598.710938,24.115601 600.177917,25.030472 601.656799,25.545418 
	C601.185730,26.876623 601.041931,28.483177 600.190918,29.494699 
	C594.352783,36.433647 588.317444,43.206230 582.443237,50.115398 
	C577.616699,55.792347 572.908752,61.570595 568.177246,67.327782 
	C561.867981,75.004845 555.586792,82.704979 549.146729,90.697601 
z"/>
<path fill="#D10022" opacity="1.000000" stroke="none" 
	d="
M485.698425,130.154022 
	C486.000000,131.066666 486.000000,132.133347 486.000000,133.600006 
	C482.940063,133.236404 483.925201,131.811966 485.698425,130.154022 
z"/>
<path fill="#000000" opacity="1.000000" stroke="none" 
	d="
M475.650635,161.783920 
	C473.069305,162.499954 470.785522,162.906982 468.208588,163.366257 
	C468.208588,160.951324 468.208588,159.219254 468.208588,157.161392 
	C471.748016,157.034424 475.615845,155.849380 475.650635,161.783920 
z"/>
<path fill="#000000" opacity="1.000000" stroke="none" 
	d="
M352.101013,168.006470 
	C348.425018,165.934311 348.063904,162.933960 349.713806,159.932190 
	C351.168213,157.286102 353.717407,156.080460 356.851349,157.352753 
	C359.885681,158.584625 361.557098,160.636490 361.015533,164.132217 
	C360.458221,167.729675 356.678467,169.508881 352.101013,168.006470 
z"/>
<path fill="#000000" opacity="1.000000" stroke="none" 
	d="
M559.843018,168.026306 
	C555.746887,170.263519 553.017334,168.985184 551.174866,165.523987 
	C549.685242,162.725510 550.126282,159.877197 552.773010,158.103897 
	C555.776184,156.091766 559.170959,156.399277 561.500610,159.175980 
	C564.081543,162.252136 563.430420,165.430908 559.843018,168.026306 
z"/>
<path fill="#D10022" opacity="1.000000" stroke="none" 
	d="
M553.958618,107.679199 
	C553.360901,107.547188 552.721863,107.094383 552.041382,106.320786 
	C552.639099,106.452797 553.278137,106.905602 553.958618,107.679199 
z"/>
</svg>