<?xml version="1.0" standalone="no"?>
<!DOCTYPE svg PUBLIC "-//W3C//DTD SVG 20010904//EN"
 "http://www.w3.org/TR/2001/REC-SVG-20010904/DTD/svg10.dtd">
<svg version="1.0" xmlns="http://www.w3.org/2000/svg"
 width="1080.000000pt" height="1080.000000pt" viewBox="0 0 1080.000000 1080.000000"
 preserveAspectRatio="xMidYMid meet">

<g transform="translate(0.000000,1080.000000) scale(0.100000,-0.100000)"
fill="#ff0000" stroke="none">
<path d="M5330 10600 c-1455 -137 -2822 -967 -3766 -2286 -491 -686 -842
-1494 -1003 -2304 -69 -344 -99 -628 -108 -995 -13 -600 65 -1138 246 -1685
134 -403 284 -711 516 -1060 150 -226 295 -401 504 -611 335 -335 546 -482
1190 -834 537 -294 720 -377 1041 -474 247 -75 529 -128 800 -152 212 -18 744
-7 940 21 173 24 567 117 765 181 435 138 920 377 1315 647 1323 904 2259
2390 2505 3982 74 474 84 1017 29 1500 -116 1019 -551 1939 -1243 2630 -286
286 -549 477 -961 700 -124 67 -324 176 -445 241 -342 184 -628 300 -950 382
-369 95 -546 118 -960 122 -176 2 -363 -1 -415 -5z m1289 -1006 c329 -37 699
-131 906 -229 184 -88 565 -444 797 -745 626 -814 902 -1932 757 -3070 -129
-1017 -558 -1971 -1244 -2765 -132 -152 -417 -434 -560 -554 -699 -583 -1470
-925 -2315 -1027 -201 -25 -601 -25 -800 0 -263 32 -502 86 -734 166 -148 51
-181 68 -281 143 -666 504 -1129 1222 -1340 2081 -48 197 -74 342 -102 566
-25 205 -25 789 0 1005 122 1042 527 1979 1208 2795 122 147 422 451 564 572
940 801 2070 1183 3144 1062z"/>
<path d="M6855 8020 c-671 -95 -693 -98 -720 -116 -11 -7 -270 -376 -575 -818
-305 -443 -558 -805 -562 -806 -4 0 -110 56 -236 125 -144 79 -239 125 -258
125 -44 0 -1118 -151 -1125 -159 -4 -3 157 -318 357 -699 l365 -694 -133 -191
c-737 -1069 -1168 -1701 -1168 -1713 0 -5 139 -84 308 -175 l308 -167 639 89
c352 49 649 93 661 98 11 5 82 101 158 213 l138 205 276 -150 275 -150 564 79
c311 43 569 82 575 85 6 4 -152 314 -373 735 -210 401 -382 734 -382 740 0 6
246 368 548 805 823 1192 826 1195 1205 1749 194 283 354 520 356 525 5 13
-606 345 -632 344 -10 -1 -266 -36 -569 -79z"/>
</g>
</svg>
