<svg width="200" height="200" viewBox="0 0 200 200" fill="none" xmlns="http://www.w3.org/2000/svg">
<path opacity="0.9" fill-rule="evenodd" clip-rule="evenodd" d="M93.2 27.3C133.9 27.5 134.9 27.5 137.7 29.6C139.2 30.8 141.3 32.8 142.3 34.1C143.3 35.4 144.5 38.9 145.5 47H190V118H145V147C145 173.7 144.9 176.1 143.2 176.6C142.3 177 139.6 176.3 133 173L125 177.5L117.5 173.2L110 177.5L102.5 173.2L95 177.5L87.5 173.2L80 177.5L72 173L67.7 175.1C65.4 176.3 62.7 177 61.7 176.6C60.2 176.1 60 174.2 60 138L41.7 137.7C25.6 137.5 23.1 137.3 20.1 135.5C18.2 134.4 15.7 131.9 14.6 130C12.9 127.1 12.5 124.8 12.5 107.5L37 107V74.7C37 56.6 37.4 40.9 38 38.7C38.6 36.7 40 33.9 41.2 32.5C42.5 31.1 45.3 29.3 47.5 28.5C50.8 27.3 59 27.1 93.2 27.3ZM42.7 38.3L43 107C46.9 107 47.8 106.5 47.5 106C47.2 105.4 47.7 103.9 48.5 102.5C49.5 100.9 50.9 100 52.5 100C54.1 100 55.5 100.9 56.5 102.5C57.3 103.9 57.8 105.4 57.5 106C57.2 106.6 63.7 107 76 107H95C95.5 126.7 95.6 127.3 98.2 129.6C100.2 131.3 102.2 132 105 132C107.8 132 109.8 131.3 111.7 129.6L114.5 127.2C115.4 49.1 115.8 36.9 116.7 35.2L118 33H48.3L42.7 38.3ZM121.6 38.1C120.7 39.7 119.9 42.4 119.9 44V47H139.9C139.9 42.4 139.3 39.7 138.4 38C137.6 36.4 136 34.6 134.9 34C133.8 33.5 131.5 33 129.7 33.1C127.9 33.1 125.7 33.5 124.8 34.1C124 34.7 122.5 36.5 121.6 38.1ZM119.9 112C161.5 112 167.9 111.7 168.7 110.8C169.7 109.8 170.2 109.8 171.2 110.8C171.9 111.6 175 112.1 178.7 112H184.9V53C174.9 53 171.9 53.5 171.1 54.3C170.2 55.3 169.7 55.3 168.7 54.3C167.8 53.3 161.6 53 143.7 53H119.9V112ZM18 119.8C18 125.8 18.3 126.8 20.7 129.3L23.4 132.1L92.9 132C90.6 127.3 89.9 123.3 89.9 119.5V113H17.9L18 119.8ZM119.7 123.3C119.4 126.2 118.4 129.6 117.4 131C116.4 132.3 114.3 134.3 112.7 135.5C110.1 137.5 108.6 137.6 87.5 137.8L65 138.1V171.1C69.7 168.8 71.7 168.1 72.5 168.1C73.4 168.1 75.4 169 77 170.1L80 172.1C84.7 169 86.7 168.1 87.5 168.1C88.4 168.1 90.4 169 92 170.1L95 172.1C99.7 169 101.7 168.1 102.5 168.1C103.4 168.1 105.4 169 107 170.1L110 172.1C114.7 169 116.7 168.1 117.5 168.1C118.4 168.1 120.4 169 122 170.1L125 172.1C129.7 169 131.7 168.1 132.5 168.1C133.4 168.1 135.4 168.8 137 169.6L140 171.1V118.1H120.3L119.7 123.3ZM105 42V48H86.5C69.7 48 67.9 47.9 67.4 46.3C67 45.3 67 44 67.3 43.3C67.8 42.3 72.6 42 105 42ZM52.5 45C54.1 45 55.5 45.9 56.5 47.5C57.8 49.7 57.8 50.3 56.5 52.5C55.5 54.1 54.1 55 52.5 55C50.9 55 49.4 54.1 48.5 52.5C47.1 50.3 47.1 49.8 48.5 47.5C49.4 45.9 50.9 45 52.5 45ZM77.7 52.2C87.4 52.5 87.5 52.6 87.5 55C87.5 57.5 87.4 57.5 77.7 57.8C69.2 58 67.9 57.8 67.4 56.3C67 55.3 67 53.9 67.4 53.2C67.8 52.3 70.5 52 77.7 52.2ZM142 60C143.333 60 144 60.6667 144 62C144 63.1 144.6 64 145.5 64C146.3 64 148.2 64.6 149.7 65.4C151.2 66.2 153 68 153.7 69.4C154.4 70.8 155 72.5 155 73C155 73.6 153.8 74 152.5 74C150.9 74 149.4 73.1 148.5 71.5C147.6 70.2 146.3 69 145.5 69C144.3 69 144 70.3 143.9 74.3C143.9 79.5 144 79.5 147.7 80.7C149.8 81.4 152.3 82.7 153.2 83.7C154.2 84.7 155.3 87.4 155.7 89.7C156.4 93.5 156.2 94 152.8 97.4C150.8 99.4 148.2 101 147.1 101C145.8 101 144.8 101.8 144.5 103C144.2 104.2 143.1 105 142 105C140.8 105 139.8 104.2 139.5 103C139.2 101.9 138.1 101 137 101C135.9 101 133.4 99.5 131.5 97.5C129.5 95.6 128 93.4 128 92.5C128 91.5 129 91 131 91C133 91 134.133 91.6 134.4 92.8C134.7 93.7 136 95.1 140 97V85L135.2 82.8C131.4 81 130.3 79.9 129.5 77C128.9 74.5 129 72.6 130 70.2C130.8 68.4 132.6 66.3 134.2 65.5C135.7 64.7 137.6 64 138.5 64C139.3 64 140 63.1 140 62C140 60.6667 140.667 60 142 60ZM135.2 73.9C135.3 75.2 136.5 77 137.8 77.9L140.1 79.5C140 70.5 139.6 69 138.6 69C137.8 69 136.7 69.6 136 70.3C135.4 71 135 72.6 135.2 73.9ZM145.7 96.4C146.7 96 148 95.2 148.8 94.6C149.5 94 150 92.5 150 91.3C150 90 149.3 88.4 148.5 87.5C147.6 86.7 146.3 86 145.5 86C144.3 86 144 87.3 144 91.5C144 96.3 144.2 96.9 145.7 96.4ZM169.9 60C170.5 60 171.3 60.7 171.7 61.6C172.1 62.4 171.9 63.6 171.2 64.3C170.2 65.3 169.7 65.3 168.7 64.3C168 63.6 167.8 62.4 168.2 61.6C168.6 60.7 169.4 60 169.9 60ZM67 70H105V75H67V70ZM169.9 70C170.5 70 171.3 70.7 171.7 71.6C172.1 72.4 171.9 73.6 171.2 74.3C170.2 75.3 169.7 75.3 168.7 74.3C168 73.6 167.8 72.4 168.2 71.6C168.6 70.7 169.4 70 169.9 70ZM52.5 72C53.3 72 54.9 72.9 56 74C57.1 75.1 58 76.7 58 77.5C58 78.4 57.1 79.9 56 81C54.9 82.1 53.3 83 52.5 83C51.6 83 50.1 82.1 49 81C47.9 79.9 47 78.4 47 77.5C47 76.7 47.9 75.1 49 74C50.1 72.9 51.6 72 52.5 72ZM67 80H88V85H67V80ZM169.9 80C170.5 80 171.3 80.7 171.7 81.6C172.1 82.4 171.9 83.6 171.2 84.3C170.2 85.3 169.7 85.3 168.7 84.3C168 83.6 167.8 82.4 168.2 81.6C168.6 80.7 169.4 80 169.9 80ZM169.9 90C170.5 90 171.3 90.7 171.7 91.6C172.1 92.4 171.9 93.6 171.2 94.3C170.2 95.3 169.7 95.3 168.7 94.3C168 93.6 167.8 92.4 168.2 91.6C168.6 90.7 169.4 90 169.9 90ZM105 97V103H86.5C69.7 103 67.9 102.9 67.4 101.3C67 100.3 67 99 67.3 98.3C67.8 97.3 72.6 97 105 97ZM169.9 100C170.5 100 171.3 100.7 171.7 101.6C172.1 102.4 171.9 103.6 171.2 104.3C170.2 105.3 169.7 105.3 168.7 104.3C168 103.6 167.8 102.4 168.2 101.6C168.6 100.7 169.4 100 169.9 100Z" fill="white"/>
</svg>
