<svg version="1.1" xmlns="http://www.w3.org/2000/svg" xmlns:xlink="http://www.w3.org/1999/xlink" width="50px" height="50px" viewBox="0,0,256,256"><g fill-opacity="0" fill="#ffffff" fill-rule="nonzero" stroke="none" stroke-width="1" stroke-linecap="butt" stroke-linejoin="miter" stroke-miterlimit="10" stroke-dasharray="" stroke-dashoffset="0" font-family="none" font-weight="none" font-size="none" text-anchor="none" style="mix-blend-mode: normal"><path d="M0,256v-256h256v256z" id="bgRectangle"></path></g><g fill="#ffffff" fill-rule="nonzero" stroke="none" stroke-width="1" stroke-linecap="butt" stroke-linejoin="miter" stroke-miterlimit="10" stroke-dasharray="" stroke-dashoffset="0" font-family="none" font-weight="none" font-size="none" text-anchor="none" style="mix-blend-mode: normal"><g transform="scale(5.12,5.12)"><path d="M23.59375,1.03125c-1.46875,0 -2.49609,1.16797 -3.21875,2.1875c-0.66797,0.9375 -1.75391,0.96875 -3.78125,0.96875c-1.07812,0 -2.46094,0.10156 -3.3125,0.71875c1.26953,2.12891 2.92578,3.71484 4.4375,4.125c0.80078,0.21875 1.44531,0.07422 2.03125,-0.40625c0.97266,-0.92187 2.05078,-1.91406 3.375,-1.8125c0.94141,0.06641 1.77344,0.64453 2.75,1.875c0.17578,0.21484 0.42578,0.32422 0.71875,0.34375c0.51953,0.03516 1.16406,-0.27344 1.71875,-0.78125c0.58594,-0.52344 1.26172,-1.05859 1.96875,-1.625c1.14453,-0.91797 3.17578,-2.53906 3.5,-3.3125c-0.29687,-0.17969 -0.70703,-0.3125 -1.28125,-0.3125c-0.79297,0 -1.5625,0.19531 -2.3125,0.375c-0.64062,0.15234 -1.23828,0.28125 -1.75,0.28125c-0.45312,0 -0.78516,-0.09766 -1.03125,-0.34375c-1.53906,-1.60156 -2.67187,-2.28125 -3.8125,-2.28125zM34.34375,5.78125c-0.76953,0.77344 -1.75391,1.55859 -2.8125,2.40625c-0.66797,0.53516 -1.32812,1.07813 -1.875,1.5625c-0.96484,0.88281 -2.14062,1.35547 -3.21875,1.28125c-0.83984,-0.05859 -1.55078,-0.44141 -2.09375,-1.09375c-0.76562,-0.96875 -1.19531,-1.14062 -1.375,-1.15625c-0.4375,-0.01172 -1.23047,0.73438 -1.875,1.34375c-0.80469,0.66406 -1.72266,1 -2.6875,1c-0.40234,0 -0.79687,-0.07422 -1.21875,-0.1875c-0.81641,-0.22266 -1.62109,-0.67578 -2.40625,-1.28125c0.98438,1.04688 2.37891,2.90625 2.625,5.5c2.07031,1.28125 6.87891,3.44531 12.5,0.28125c0.31641,-0.17969 0.68359,-0.4375 1.09375,-0.71875c0.03125,-0.02344 0.05859,-0.03906 0.09375,-0.0625c-0.27344,-3.71484 1.90625,-6.58594 2.1875,-6.9375l0.09375,-0.125c0.33984,-0.53516 0.73047,-1.16797 0.96875,-1.8125zM38.21875,12c-1.95703,-0.08984 -3.70312,0.58594 -5.125,1.375c-0.02734,0.30859 -0.01562,0.61328 0,0.9375c0.44922,0.18359 0.89453,0.41016 1.34375,0.625c2.09375,1.00781 4.14453,2.38672 6,4.0625c0.02344,0.00391 0.03906,0 0.0625,0c0.24609,0 0.49219,-0.09766 0.6875,-0.28125c0.40234,-0.37891 0.41016,-1.00391 0.03125,-1.40625c-1.72266,-1.82031 -3.84766,-2.62109 -5.9375,-2.78125c1.64844,-0.66406 3.57813,-0.84766 5.75,0.34375c0.48438,0.26563 1.07813,0.07813 1.34375,-0.40625c0.26563,-0.48437 0.07813,-1.07812 -0.40625,-1.34375c-1.33594,-0.73047 -2.57422,-1.07031 -3.75,-1.125zM32.4375,16.15625c-0.10547,0.07031 -0.21094,0.14844 -0.3125,0.21875c-0.46094,0.31641 -0.85547,0.57422 -1.21875,0.78125c-2.46094,1.38672 -4.80859,1.90625 -6.90625,1.90625c-3.64062,0 -6.53125,-1.48828 -7.96875,-2.40625c-6.34375,2.71875 -12.03125,10.65234 -12.03125,17.4375c0,10.90625 7.07031,12.90625 21,12.90625c13.92969,0 21,-2 21,-12.90625c0,-8.07812 -6.74219,-15.21484 -13.5625,-17.9375zM23.5,22h1.8125v2.09375c2.60156,0.5 3.5,2.3125 4,4.3125h-1.8125c-0.30078,-1.39844 -1.19531,-2.59375 -3.09375,-2.59375c-2.69922,0 -3,1.79297 -3,2.59375c0,1.89844 1.78906,2.28125 3.6875,2.78125c2.39844,0.60156 4.8125,1.40625 4.8125,4.40625c0,3.60156 -3.19531,4.61719 -4.59375,4.71875v1.6875h-1.8125v-1.6875c-1.5,-0.30078 -4.19922,-1.22656 -4.5,-5.125h1.8125c0,1.19922 0.79297,3.40625 3.59375,3.40625c2.69922,0 3.40625,-1.28125 3.40625,-2.78125c0,-4.39844 -8.40625,-1.41797 -8.40625,-7.21875c0,-3.19922 2.59375,-4.39453 4.09375,-4.59375z"></path></g></g></svg>