<svg version="1.1" xmlns="http://www.w3.org/2000/svg" xmlns:xlink="http://www.w3.org/1999/xlink" width="480px" height="480px" viewBox="0,0,256,256"><g fill-opacity="0" fill="#dddddd" fill-rule="nonzero" stroke="none" stroke-width="1" stroke-linecap="butt" stroke-linejoin="miter" stroke-miterlimit="10" stroke-dasharray="" stroke-dashoffset="0" font-family="none" font-weight="none" font-size="none" text-anchor="none" style="mix-blend-mode: normal"><path d="M0,256v-256h256v256z" id="bgRectangle"></path></g><g fill="#ffffff" fill-rule="nonzero" stroke="none" stroke-width="1" stroke-linecap="butt" stroke-linejoin="miter" stroke-miterlimit="10" stroke-dasharray="" stroke-dashoffset="0" font-family="none" font-weight="none" font-size="none" text-anchor="none" style="mix-blend-mode: normal"><g transform="scale(0.53333,0.53333)"><path d="M45.60938,0c-17.673,0 -32,14.327 -32,32v332c0,4.418 3.582,8 8,8h72.63086c15.116,0 27.36915,12.25314 27.36915,27.36914v72.63086c0,4.418 3.58199,8 8,8h227c17.673,0 32,-14.327 32,-32v-109.04688c0,-3.043 -3.56891,-4.68412 -5.87891,-2.70312c-11.481,9.843 -28.41581,6.51941 -35.88281,-5.30859c-1.303,-2.065 -4.09036,-2.56071 -5.94336,-0.97071l-23.78516,20.39844c-7.373,6.325 -8.17589,5.13456 -65.96289,11.35156c-0.823,0.089 -1.59989,0.43228 -2.21289,0.98828c-2.383,2.157 -7.96197,7.24219 -17.29297,7.24219c-6.76,0 -13.4807,-2.85186 -18.2207,-8.38086c-8.63,-10.061 -7.46816,-25.20684 2.58984,-33.83984c1.67,-1.433 2.60986,-2.01209 3.00586,-3.49609c13.543,-50.731 13.95039,-52.80747 15.02539,-55.10547c1.417,-3.029 3.422,-5.89308 6.25,-8.33008c112.496,-96.954 138.85919,-119.12777 145.49219,-124.75977c1.79,-1.52 2.81641,-3.7477 2.81641,-6.0957v-97.94336c0,-17.673 -14.327,-32 -32,-32zM102.58008,43.89063c4.42,0 8,3.58 8,8v10.03906c9.92,1.74 18.59008,6.66039 24.08008,13.90039c2.67,3.52 1.96922,8.53898 -1.55078,11.20898c-3.52001,2.66 -8.53899,1.97117 -11.20899,-1.54883c-3.85,-5.08 -11.26008,-8.25477 -19.33008,-8.25977c-10.538,-0.007 -21.80931,6.05559 -21.82031,15.05859c-0.01,9 5.55039,11.59172 23.40039,15.26172c15.27,3.14 36.18992,7.44922 36.16992,30.94922c-0.016,14.035 -11.67884,27.21161 -29.83984,30.34961v10.04101c0,4.41 -3.58,8 -8,8c-4.41,0 -8,-3.59 -8,-8v-10.05078c-9.92,-1.729 -18.59031,-6.65943 -24.07031,-13.89843c-2.67,-3.521 -1.97922,-8.54118 1.55078,-11.20118c3.52,-2.67 8.53922,-1.97898 11.19922,1.54102c7.205,9.501 25.25353,11.11845 35.51953,3.18945c2.11,-1.63 5.63062,-5.09123 5.64062,-9.99023c0.01,-9 -5.55039,-11.58977 -23.40039,-15.25977c-15.27,-3.14 -36.18992,-7.4404 -36.16992,-30.9414c0.01,-14.88 12.81008,-27.33961 29.83008,-30.34961v-10.03906c0,-4.42 3.59,-8 8,-8zM190.60938,67h129c4.42,0 8,3.58 8,8c0,4.42 -3.58001,8 -8,8h-129c-4.42,0 -8,-3.58 -8,-8c0,-4.42 3.58,-8 8,-8zM190.60938,137h4.48046c4.42,0 8,3.58 8,8c0,4.42 -3.58,8 -8,8h-4.48046c-4.42,0 -8,-3.58 -8,-8c0,-4.42 3.58,-8 8,-8zM242.58008,137h77.0293c4.42,0 8,3.58 8,8c0,4.42 -3.58001,8 -8,8h-77.0293c-4.42,0 -8,-3.58 -8,-8c0,-4.42 3.58,-8 8,-8zM421.7168,138.3457c-8.96901,0.16689 -17.93211,3.32539 -25.25586,9.60352l-29.10938,24.96289c-3.354,2.876 -3.73537,7.93311 -0.85937,11.28711c40.375,47.082 51.41434,59.95394 50.77734,59.21094c0.265,0.799 8.05247,10.51998 0.23047,20.45898c-1.76,2.262 -0.07361,0.3458 -55.59961,48.0918c-5.646,4.855 -2.13902,14.07812 5.20899,14.07812c1.85,0 3.70093,-0.63968 5.21093,-1.92968l53.42969,-45.82032c13.39,-11.49 14.94094,-31.71914 3.46094,-45.11914l23.23828,-19.92969c16.74,-14.36 18.68031,-39.66015 4.32031,-56.41015l-3.91015,-4.55078c-8.07188,-9.41625 -19.611,-14.14816 -31.14258,-13.9336zM348.11914,191.8125c-1.79276,0.03397 -3.58536,0.66709 -5.05273,1.92578l-80.48047,69.0293c-3.378,2.897 -3.74255,7.99575 -0.81055,11.34375l46.12695,52.66601c2.89,3.298 7.89757,3.65383 11.22657,0.79883l79.92773,-68.54883c3.354,-2.876 3.74123,-7.92629 0.86524,-11.27929l-45.57422,-53.14453c-1.61775,-1.88719 -3.92354,-2.8347 -6.22852,-2.79102zM72.60938,221h31.00001c4.42,0 8,3.58 8,8c0,4.42 -3.58,8 -8,8h-31c-4.42,0 -8,-3.58 -8,-8c0,-4.42 3.58,-8 8,-8zM141.86914,221h79.74024c4.41999,0 7.99999,3.58 8,8c0,4.42 -3.58001,8 -8,8h-79.74024c-4.42,0 -8,-3.58 -8,-8c0,-4.42 3.58,-8 8,-8zM249.03711,285.7793c-1.74195,-0.04631 -3.47328,1.03625 -3.98828,2.96875l-12.14844,45.58203l-6.46094,5.53906c-3.36,2.88 -3.74914,7.93125 -0.86914,11.28125c2.853,3.34 7.8853,3.76814 11.2793,0.86914l6.4707,-5.54883l47.69141,-5.13672c3.219,-0.347 4.71408,-4.17532 2.58008,-6.61132l-41.66992,-47.57813c-0.7905,-0.903 -1.8396,-1.33745 -2.88477,-1.36523zM72.60938,301h118c4.41999,0 7.99999,3.58 8,8c0,4.42 -3.58001,8 -8,8h-118c-4.42,0 -8,-3.58 -8,-8c0,-4.42 3.58,-8 8,-8zM27.94727,388c-3.563,0 -5.34812,4.30813 -2.82812,6.82812l73.66211,73.66211c2.519,2.52 6.82813,0.73588 6.82813,-2.82812v-66.29297c-0.00001,-6.279 -5.09015,-11.36914 -11.36915,-11.36914z"></path></g></g></svg>