<svg version="1.1" xmlns="http://www.w3.org/2000/svg" xmlns:xlink="http://www.w3.org/1999/xlink" width="50px" height="50px" viewBox="0,0,256,256"><g fill-opacity="0" fill="#dddddd" fill-rule="nonzero" stroke="none" stroke-width="1" stroke-linecap="butt" stroke-linejoin="miter" stroke-miterlimit="10" stroke-dasharray="" stroke-dashoffset="0" font-family="none" font-weight="none" font-size="none" text-anchor="none" style="mix-blend-mode: normal"><path d="M0,256v-256h256v256z" id="bgRectangle"></path></g><g fill="#ffffff" fill-rule="nonzero" stroke="none" stroke-width="1" stroke-linecap="butt" stroke-linejoin="miter" stroke-miterlimit="10" stroke-dasharray="" stroke-dashoffset="0" font-family="none" font-weight="none" font-size="none" text-anchor="none" style="mix-blend-mode: normal"><g transform="scale(5.12,5.12)"><path d="M25,2c-12.6907,0 -23,10.3093 -23,23c0,12.69071 10.3093,23 23,23c12.69071,0 23,-10.30929 23,-23c0,-12.6907 -10.30929,-23 -23,-23zM25,4c11.60982,0 21,9.39018 21,21c0,11.60982 -9.39018,21 -21,21c-11.60982,0 -21,-9.39018 -21,-21c0,-11.60982 9.39018,-21 21,-21zM18,13v10v2.85547v11.14453h3v-10h6.80859c4.686,0 8.19141,-1.80097 8.19141,-7.16797c0,-4.933 -3.40328,-6.83203 -7.98828,-6.83203zM21,16h6.05078c3.18,0 5.94922,0.492 5.94922,4c0,3.231 -2.39291,4 -5.50391,4h-6.49609v-1z"></path></g></g></svg>