<svg version="1.1" xmlns="http://www.w3.org/2000/svg" xmlns:xlink="http://www.w3.org/1999/xlink" width="128px" height="128px" viewBox="0,0,256,256"><g fill="none" fill-rule="nonzero" stroke="none" stroke-width="1" stroke-linecap="butt" stroke-linejoin="miter" stroke-miterlimit="10" stroke-dasharray="" stroke-dashoffset="0" font-family="none" font-weight="none" font-size="none" text-anchor="none" style="mix-blend-mode: normal"><g transform="scale(2,2)"><path d="M64,14c-27.61424,0 -50,22.38576 -50,50c0,27.61424 22.38576,50 50,50c27.61424,0 50,-22.38576 50,-50c0,-27.61424 -22.38576,-50 -50,-50z" fill="#daeaff" fill-opacity="0.1"></path><path d="M64,117c-29.2,0 -53,-23.8 -53,-53c0,-29.2 23.8,-53 53,-53c29.2,0 53,23.8 53,53c0,29.2 -23.8,53 -53,53zM64,17c-25.9,0 -47,21.1 -47,47c0,25.9 21.1,47 47,47c25.9,0 47,-21.1 47,-47c0,-25.9 -21.1,-47 -47,-47z" fill="#ffffff"></path><path d="M81.1,61.9l-6.2,-1.5c-1.9,-0.5 -3.1,-2.1 -3.1,-4c0,-2.3 1.9,-4.2 4.2,-4.2h3c2.1,0 3.8,1.7 3.8,3.8c0,1.7 1.3,3 3,3c1.7,0 3,-1.3 3,-3c0,-5 -3.7,-9.1 -8.5,-9.7v-1.3c0,-1.7 -1.3,-3 -3,-3c-1.7,0 -3,1.3 -3,3v1.4c-4.8,0.8 -8.5,5 -8.5,10c0,4.7 3.2,8.7 7.7,9.9l6.2,1.5c1.9,0.5 3.1,2.1 3.1,4c0,2.3 -1.9,4.2 -4.2,4.2h-3c-2.1,0 -3.8,-1.7 -3.8,-3.8c0,-1.7 -1.3,-3 -3,-3c-1.7,0 -3,1.3 -3,3c0,5 3.7,9.1 8.5,9.7v1.3c0,1.7 1.3,3 3,3c1.7,0 3,-1.3 3,-3v-1.4c4.8,-0.8 8.5,-5 8.5,-10c0,-4.8 -3.2,-8.8 -7.7,-9.9zM58.3,82c-0.9,0 -1.8,-0.4 -2.4,-1.2l-9.6,-13.1v11.3c0,1.7 -1.3,3 -3,3c-1.7,0 -3,-1.3 -3,-3v-30c0,-1.7 1.3,-3 3,-3h7.5c5.8,0 10.5,4.7 10.5,10.5c0,5 -3.5,9.2 -8.3,10.3l7.7,10.5c1,1.3 0.7,3.2 -0.6,4.2c-0.6,0.3 -1.2,0.5 -1.8,0.5zM46.2,52v9.2c0.3,-0.1 0.7,-0.2 1,-0.2h3.5c2.5,0 4.5,-2 4.5,-4.5c0,-2.5 -2,-4.5 -4.5,-4.5z" fill="#ffffff"></path></g></g></svg>