<svg width="147" height="150" viewBox="0 0 147 150" fill="none" xmlns="http://www.w3.org/2000/svg">
<path d="M70.0624 14.9888V7.49438C70.0624 1.04921 70.5123 0 73.0617 0C75.6111 0 76.061 1.04921 76.061 14.9888L99.3059 15.7382L100.056 32.9753L117.302 33.7247L117.602 43.0177C117.902 48.2638 117.602 52.4607 116.852 52.4607C116.252 52.4607 107.254 49.4629 96.6065 45.7157C86.1088 41.9685 75.9111 38.9708 73.8115 38.9708C71.712 38.9708 61.0644 41.9685 50.1168 45.7157C39.3192 49.4629 29.8713 52.4607 29.2714 52.4607C28.5216 52.4607 28.2217 48.2638 28.8215 33.7247L46.0677 32.9753L46.8175 15.7382L70.0624 14.9888Z" fill="white"/>
<path d="M8.72601 131.751C13.225 131.302 18.1739 130.102 19.8235 129.203C21.4732 128.304 23.4227 127.554 24.3225 127.554C25.2223 127.554 27.4718 128.454 29.5714 129.653C31.6709 130.852 36.1699 131.751 39.7691 131.901C43.2183 131.901 48.6171 130.852 51.7664 129.503C56.8653 127.404 57.7651 127.404 62.2641 129.503C64.8135 130.852 69.7624 131.901 73.0617 131.901C76.361 131.901 81.6098 130.852 84.7591 129.503C89.858 127.404 90.7578 127.404 95.2568 129.503C97.8062 130.852 102.755 131.901 106.054 131.901C109.354 131.901 114.602 130.852 117.752 129.503C122.401 127.554 123.9 127.404 127.05 129.053C129.149 130.252 134.548 131.451 139.047 131.901C143.846 132.351 146.995 133.25 146.545 134.149C146.095 134.899 142.046 135.498 137.547 135.349C133.048 135.199 126.9 135.199 124.05 135.049C121.201 135.049 113.703 135.049 107.554 135.199H91.0577C88.2083 135.049 80.71 135.049 74.5614 135.199H58.065C55.2157 135.049 47.7173 135.049 41.5687 135.199C35.4201 135.199 27.9217 135.199 25.0724 135.049C22.223 134.899 15.3245 135.199 9.77577 135.648C1.97751 136.248 -0.271995 135.948 0.0279383 134.449C0.327872 133.4 4.07704 132.201 8.72601 131.751Z" fill="white"/>
<path d="M8.72601 143.742C13.225 143.293 18.1739 142.093 19.8235 141.194C21.4732 140.295 23.1228 139.395 23.5727 139.395C24.0226 139.395 26.872 140.295 29.8713 141.644C33.0206 142.843 37.9695 143.892 40.8189 143.892C43.6682 143.892 48.7671 142.843 51.9164 141.644C57.1652 139.545 58.365 139.545 63.1639 141.644C66.1632 142.843 70.9622 143.892 73.8115 143.892C76.6609 143.892 81.7598 142.843 85.059 141.644C90.4578 139.545 91.5076 139.545 96.3065 141.644C99.1559 142.843 103.955 143.892 106.804 143.892C109.654 143.892 114.602 142.843 117.602 141.494C122.251 139.545 123.9 139.395 127.05 141.044C129.149 142.093 134.398 143.293 138.747 143.742C143.096 144.192 146.845 145.241 146.995 146.14C147.145 146.89 143.696 147.789 139.347 147.939C135.148 148.239 129.449 147.489 126.75 146.29C122.701 144.642 121.351 144.642 118.052 146.29C115.952 147.34 110.553 148.239 106.054 148.239C101.555 148.239 96.1566 147.34 94.057 146.29C90.9077 144.642 89.558 144.642 85.359 146.29C82.8095 147.489 76.9608 148.389 72.7618 148.389C68.4128 148.239 63.1639 147.34 61.0644 146.29C57.9151 144.642 56.5654 144.642 52.3663 146.29C49.8169 147.489 43.9682 148.389 39.7691 148.389C35.4201 148.239 30.1712 147.34 28.0717 146.29C24.9224 144.642 23.5727 144.642 19.5236 146.29C16.8242 147.489 11.2754 148.389 7.07637 148.389C1.82754 148.389 -0.271995 147.789 0.0279383 146.44C0.327872 145.391 4.07704 144.192 8.72601 143.742Z" fill="white"/>
<path d="M140.097 131.451C139.497 132.201 138.597 132.201 137.997 131.451C137.247 130.852 137.697 130.402 138.897 130.402C140.097 130.402 140.547 130.852 140.097 131.451Z" fill="black" fill-opacity="0.2"/>
<path d="M140.097 143.442C139.497 144.192 138.597 144.192 137.997 143.442C137.247 142.843 137.697 142.393 138.897 142.393C140.097 142.393 140.547 142.843 140.097 143.442Z" fill="black" fill-opacity="0.2"/>
<path d="M5.42673 131.302C5.12679 131.751 3.77709 131.751 2.57736 131.451C0.927724 130.852 1.07769 130.552 3.17722 130.552C4.82686 130.402 5.72666 130.852 5.42673 131.302Z" fill="black" fill-opacity="0.3"/>
<path d="M5.42673 143.293C5.12679 143.742 3.77709 143.742 2.57736 143.442C0.927724 142.843 1.07769 142.543 3.17722 142.543C4.82686 142.393 5.72666 142.843 5.42673 143.293Z" fill="black" fill-opacity="0.3"/>
<path d="M146.096 131.451C145.496 132.201 144.596 132.201 143.996 131.451C143.246 130.852 143.696 130.402 144.896 130.402C146.096 130.402 146.545 130.852 146.096 131.451Z" fill="black" fill-opacity="0.7"/>
<path d="M146.096 143.442C145.496 144.192 144.596 144.192 143.996 143.442C143.246 142.843 143.696 142.393 144.896 142.393C146.096 142.393 146.545 142.843 146.096 143.442Z" fill="black" fill-opacity="0.7"/>
<path d="M5.12682 137.447C4.52696 138.196 3.62716 138.196 3.02729 137.447C2.27746 136.847 2.72736 136.398 3.92709 136.398C5.12682 136.398 5.57672 136.847 5.12682 137.447Z" fill="black" fill-opacity="0.7"/>
<path d="M5.12682 149.438C4.52696 150.187 3.62716 150.187 3.02729 149.438C2.27746 148.838 2.72736 148.389 3.92709 148.389C5.12682 148.389 5.57672 148.838 5.12682 149.438Z" fill="black" fill-opacity="0.7"/>
<path fill-rule="evenodd" clip-rule="evenodd" d="M73.8116 45.5658C74.5614 45.8656 87.7585 50.2124 103.055 55.1586C118.352 60.2548 132.449 65.5009 134.398 66.9998C136.798 68.7984 137.847 71.1966 137.847 74.1944C137.847 76.5926 135.298 83.7872 132.449 89.9326C127.95 99.0757 127.05 102.823 127.05 110.617C127.05 119.311 126.75 119.91 123.75 119.91C121.801 119.91 118.952 120.809 117.302 122.158C115.652 123.357 111.003 124.407 106.804 124.407C102.455 124.407 98.1062 123.507 96.3066 122.158C94.6569 120.959 91.9575 119.91 90.3079 119.91C88.6583 119.91 85.9589 120.809 84.3092 122.158C82.6596 123.357 78.1606 124.407 74.2615 124.407C70.0624 124.407 65.1135 123.357 62.5641 121.709C58.515 119.46 57.4652 119.46 53.1162 121.259C50.5667 122.458 45.018 123.657 40.8189 123.957C35.5701 124.407 32.2708 123.807 29.5714 122.009C27.4719 120.66 24.3226 119.76 22.523 120.06C19.3737 120.66 19.0737 120.21 19.0737 110.917C19.0737 102.823 18.024 98.9258 13.0751 87.984C8.12615 77.1921 7.37632 74.3443 8.57605 71.1966C9.47585 69.0982 10.9755 66.9998 11.8753 66.2503C12.9251 65.6508 26.872 60.7045 43.0684 55.1586C59.1148 49.7627 73.0617 45.4159 73.8116 45.5658ZM44.5681 86.1854C45.3179 88.2838 46.8176 89.9326 47.5674 89.9326C48.3172 89.9326 49.8169 88.2838 50.5667 86.1854C51.5665 83.6872 51.5665 81.1891 50.5667 78.691C49.8169 76.5926 48.3172 74.9438 47.5674 74.9438C46.6676 74.9438 45.3179 76.5926 44.5681 78.691C43.5183 81.0892 43.5183 83.7872 44.5681 86.1854ZM95.5567 86.1854C96.3066 88.2838 97.8062 89.9326 98.5561 89.9326C99.3059 89.9326 100.806 88.2838 101.555 86.1854C102.555 83.6872 102.555 81.1891 101.555 78.691C100.806 76.5926 99.3059 74.9438 98.5561 74.9438C97.6563 74.9438 96.3066 76.5926 95.5567 78.691C94.507 81.0892 94.507 83.7872 95.5567 86.1854Z" fill="white"/>
</svg>
