<svg xmlns="http://www.w3.org/2000/svg" xmlns:xlink="http://www.w3.org/1999/xlink" version="1.1" id="Layer_1" x="0px" y="0px" viewBox="0 0 512 512" style="enable-background:new 0 0 512 512;" xml:space="preserve">
<style type="text/css">
	.st0{fill-rule:evenodd;clip-rule:evenodd;fill:#D70015;}
	.st1{fill-rule:evenodd;clip-rule:evenodd;fill:#00000;}
</style>
<g>
	<path class="st0" d="M372.36,162.91H139.64c-51.43,0-93.09,41.66-93.09,93.09s41.66,93.09,93.09,93.09h232.73   c51.43,0,93.09-41.66,93.09-93.09S423.8,162.91,372.36,162.91z M139.64,325.82c-38.64,0-69.82-31.18-69.82-69.82   s31.18-69.82,69.82-69.82s69.82,31.18,69.82,69.82S178.27,325.82,139.64,325.82z"/>
	<path class="st1" d="M372.36,116.36H139.64C62.59,116.36,0,178.98,0,256s62.59,139.64,139.64,139.64h232.73   C449.39,395.64,512,333.02,512,256S449.39,116.36,372.36,116.36z M372.36,349.09H139.64c-51.43,0-93.09-41.66-93.09-93.09   s41.66-93.09,93.09-93.09h232.73c51.43,0,93.09,41.66,93.09,93.09S423.8,349.09,372.36,349.09z M139.64,186.18   c-38.64,0-69.82,31.18-69.82,69.82s31.18,69.82,69.82,69.82s69.82-31.18,69.82-69.82S178.27,186.18,139.64,186.18z"/>
</g>
</svg>