<svg version="1.1" xmlns="http://www.w3.org/2000/svg" xmlns:xlink="http://www.w3.org/1999/xlink" width="50px" height="50px" viewBox="0,0,256,256"><g fill-opacity="0" fill="#dddddd" fill-rule="nonzero" stroke="none" stroke-width="1" stroke-linecap="butt" stroke-linejoin="miter" stroke-miterlimit="10" stroke-dasharray="" stroke-dashoffset="0" font-family="none" font-weight="none" font-size="none" text-anchor="none" style="mix-blend-mode: normal"><path d="M0,256v-256h256v256z" id="bgRectangle"></path></g><g fill="#f8f8f8" fill-rule="nonzero" stroke="none" stroke-width="1" stroke-linecap="butt" stroke-linejoin="miter" stroke-miterlimit="10" stroke-dasharray="" stroke-dashoffset="0" font-family="none" font-weight="none" font-size="none" text-anchor="none" style="mix-blend-mode: normal"><g transform="scale(5.12,5.12)"><path d="M8.1875,0c-1.76562,0 -3.1875,1.42188 -3.1875,3.1875v7.71875h0.8125c1.21875,0 2.30469,0.57031 3.09375,1.4375c0.76953,-3.45703 5.72656,-5.15625 15.09375,-5.15625c10.55859,0 16.29297,1.80469 17.09375,5.3125c0.78516,-0.89453 1.9375,-1.46875 3.21875,-1.46875h0.6875v-7.84375c0,-1.76562 -1.49219,-3.1875 -3.3125,-3.1875zM24,9.1875c-4.83984,0 -12.98828,0.52344 -13.1875,3.96875l-0.71875,5.53125l-0.5625,4.09375l-0.40625,3.21875h-0.9375c-0.33203,0 -0.625,0.03906 -0.9375,0.09375c-0.16406,0.03125 -0.34375,0.07813 -0.5,0.125c-0.125,0.03516 -0.25391,0.08203 -0.375,0.125c-0.21094,0.07813 -0.39844,0.14844 -0.59375,0.25c-0.04687,0.02344 -0.07812,0.07031 -0.125,0.09375c-0.22266,0.12891 -0.45312,0.25 -0.65625,0.40625c-0.27734,0.21484 -0.51953,0.48438 -0.75,0.75c-0.04297,0.05078 -0.08594,0.07422 -0.125,0.125c-0.13672,0.17578 -0.26172,0.37109 -0.375,0.5625c-0.08594,0.14453 -0.17969,0.3125 -0.25,0.46875c-0.04687,0.10156 -0.08203,0.20703 -0.125,0.3125c-0.09375,0.24609 -0.19141,0.48438 -0.25,0.75c-0.01562,0.0625 -0.01953,0.125 -0.03125,0.1875c-0.05469,0.30469 -0.09375,0.61328 -0.09375,0.9375v6.8125h44v-6.8125c0,-0.32422 -0.03906,-0.63281 -0.09375,-0.9375c-0.01172,-0.0625 -0.01953,-0.125 -0.03125,-0.1875c-0.05859,-0.26562 -0.125,-0.50391 -0.21875,-0.75c-0.03906,-0.10547 -0.10937,-0.21094 -0.15625,-0.3125c-0.07031,-0.15625 -0.16406,-0.32422 -0.25,-0.46875c-0.11328,-0.19141 -0.23437,-0.38672 -0.375,-0.5625c-0.03906,-0.05078 -0.08203,-0.07422 -0.125,-0.125c-0.23047,-0.26953 -0.47266,-0.53516 -0.75,-0.75c-0.20312,-0.15625 -0.43359,-0.27734 -0.65625,-0.40625c-0.04687,-0.02344 -0.07812,-0.07031 -0.125,-0.09375c-0.19531,-0.10547 -0.38281,-0.17187 -0.59375,-0.25c-0.12109,-0.04297 -0.24609,-0.08984 -0.375,-0.125c-0.15625,-0.04687 -0.33594,-0.09375 -0.5,-0.125c-0.3125,-0.05859 -0.60937,-0.09375 -0.9375,-0.09375h-0.9375l-0.4375,-3.40625l-0.40625,-3.125l-0.84375,-6.21875c-0.22656,-3.84766 -12.69141,-4.0625 -15.1875,-4.0625zM24,11.1875c8.42969,0 12.83984,1.49609 13.21875,2.25l1,7.6875c-1.48047,0.25 -5.875,0.875 -13.21875,0.875c-7.34375,0 -11.73828,-0.62109 -13.21875,-0.875l1.03125,-7.78125c0.02344,-0.42969 2.08203,-2.15625 11.1875,-2.15625zM4.1875,12.90625c-1.19531,0 -2.28125,1.08594 -2.28125,2.28125v5.5c0,1.26953 1.06641,2.40625 2.28125,2.40625h1.5c1.26953,0 2.40625,-1.0625 2.40625,-2.28125v-5.5c0,-1.26953 -1.06641,-2.40625 -2.28125,-2.40625zM44.3125,13.03125c-1.25781,0 -2.28125,1.02344 -2.28125,2.28125v5.5c0,1.26172 1.02344,2.28125 2.28125,2.28125h1.5c1.19531,0 2.28125,-1.08594 2.28125,-2.28125v-5.5c0,-1.25781 -1.02344,-2.28125 -2.28125,-2.28125zM19.59375,27h10.8125c0.6875,0 1.23828,0.40625 1.46875,1c0.07422,0.18359 0.125,0.37891 0.125,0.59375v4.8125c0,0.89844 -0.69531,1.59375 -1.59375,1.59375h-10.8125c-0.89844,0 -1.59375,-0.69531 -1.59375,-1.59375v-4.8125c0,-0.21484 0.05469,-0.41016 0.125,-0.59375c0.23047,-0.59375 0.78125,-1 1.46875,-1zM8.6875,31h4.625c0.39844,0 0.6875,0.28906 0.6875,0.6875v2.625c0,0.39844 -0.28906,0.6875 -0.6875,0.6875h-4.625c-0.39844,0 -0.6875,-0.28906 -0.6875,-0.6875v-2.625c0,-0.39844 0.28906,-0.6875 0.6875,-0.6875zM36.6875,31h4.625c0.39844,0 0.6875,0.28906 0.6875,0.6875v2.625c0,0.39844 -0.28906,0.6875 -0.6875,0.6875h-4.625c-0.39844,0 -0.6875,-0.28906 -0.6875,-0.6875v-2.625c0,-0.39844 0.28906,-0.6875 0.6875,-0.6875zM3,40v5h44v-5zM3,47c0,1.65234 1.34766,3 3,3h4c1.65234,0 3,-1.34766 3,-3zM37,47c0,1.65234 1.34766,3 3,3h4c1.65234,0 3,-1.34766 3,-3z"></path></g></g></svg>